<?xml version="1.0" encoding="UTF-8" standalone="no"?>
<!-- Created with Inkscape (http://www.inkscape.org/) -->

<svg
   version="1.1"
   id="svg1"
   width="400"
   height="300"
   viewBox="0 0 400 300"
   sodipodi:docname="icon.svg"
   inkscape:version="1.4 (e7c3feb1, 2024-10-09)"
   xmlns:inkscape="http://www.inkscape.org/namespaces/inkscape"
   xmlns:sodipodi="http://sodipodi.sourceforge.net/DTD/sodipodi-0.dtd"
   xmlns="http://www.w3.org/2000/svg"
   xmlns:svg="http://www.w3.org/2000/svg">
  <defs
     id="defs1" />
  <sodipodi:namedview
     id="namedview1"
     pagecolor="#ffffff"
     bordercolor="#000000"
     borderopacity="0.25"
     inkscape:showpageshadow="2"
     inkscape:pageopacity="0.0"
     inkscape:pagecheckerboard="0"
     inkscape:deskcolor="#d1d1d1"
     showgrid="false"
     inkscape:zoom="1.6520383"
     inkscape:cx="161.01322"
     inkscape:cy="143.15649"
     inkscape:window-width="1440"
     inkscape:window-height="872"
     inkscape:window-x="0"
     inkscape:window-y="28"
     inkscape:window-maximized="0"
     inkscape:current-layer="g1" />
  <g
     inkscape:groupmode="layer"
     inkscape:label="Image"
     id="g1">
    <path
       d="m 205.64453,30.191406 c -1.3855,-0.02762 -2.09212,0.561271 -3.16406,2.197266 -3.22761,4.925944 0.16545,14.103303 7.93164,21.451172 2.52297,2.387074 4.58789,5.248192 4.58789,6.357422 0,1.109231 -0.749,5.118961 -1.66406,8.910156 L 211.67187,76 h -4.20507 c -6.80318,0 -20.74205,2.772654 -28.62696,5.695312 -14.97156,5.549435 -30.32782,18.152128 -40.3789,33.134768 -4.81745,7.18114 -4.63501,8.14676 1.53906,8.13086 3.30273,-0.008 3.8293,-0.51459 9.34766,-8.98438 3.21638,-4.93662 6.2175,-8.97656 6.66992,-8.97656 0.45242,0 1.13808,1.4625 1.52148,3.25 0.3834,1.7875 3.59196,13.08966 7.13086,25.11523 3.53889,12.02558 6.19135,22.10748 5.89453,22.4043 -0.29682,0.29681 -4.93345,-2.4191 -10.30273,-6.03516 -17.89693,-12.05312 -29.58592,-16.73971 -41.72266,-16.72851 -7.57113,0.007 -12.75974,1.42023 -16.2539,4.42578 l -2.716801,2.33789 2.964841,4.29688 c 2.83342,4.10485 2.9798,4.18348 3.26953,1.75195 0.16681,-1.40001 1.66011,-3.84432 3.31836,-5.43164 2.82122,-2.70054 3.54141,-2.88672 11.19727,-2.88672 7.3491,0 8.95799,0.37013 15.81055,3.64258 8.15122,3.89264 15.09966,9.46534 17.43554,13.98242 1.40591,2.71874 1.95394,6.875 0.90625,6.875 -0.29118,0 -2.76537,-1.76768 -5.49804,-3.92773 -6.50572,-5.14248 -14.11884,-7.89722 -24.91016,-9.01368 -8.45679,-0.87493 -17.07857,-0.4592 -17.04687,0.82227 0.07,2.82497 2.42483,3.52965 14.16015,4.23633 12.64811,0.76166 22.62838,3.12211 29.48047,6.9707 1.91023,1.07291 3.94473,1.65918 4.52148,1.30273 1.52379,-0.94174 0.0296,10.65287 -2.39843,18.60938 -4.52869,14.84041 -17.3079,42.8758 -24.4961,53.74219 -7.38131,11.15831 -13.94508,15.16599 -22.47656,13.72461 -4.90168,-0.82813 -10.488337,-5.55921 -12.941406,-10.95899 -2.494447,-5.49087 -2.437436,-14.46744 0.125,-19.49023 l 1.992188,-3.90235 7.257808,0.48047 c 3.99243,0.2649 8.77724,0.67073 10.63086,0.90039 l 3.36914,0.41797 -0.45117,-5.4414 c -0.59962,-7.23062 -2.65951,-9.4758 -8.69336,-9.4668 -5.65196,0.008 -9.156919,2.17979 -13.597653,8.42578 -6.429262,9.04289 -7.074384,20.97065 -1.869141,34.56836 5.452461,14.24352 13.851164,19.75579 28.625004,18.78711 16.96859,-1.11259 27.91093,-11.81091 45.80664,-44.78711 3.43249,-6.325 7.79743,-14.36123 9.69922,-17.85742 l 3.45703,-6.35547 4.97656,9.27539 c 11.56254,21.55759 26.11411,39.35841 40.66992,49.74609 10.66136,7.60844 27.04346,14.22785 39.84961,16.10157 12.74854,1.86529 26.77198,0.47547 34.25195,-3.39258 4.80973,-2.48721 10.95067,-9.563 12.16602,-14.01758 2.91498,-10.68417 -2.7763,-29.12904 -11.96094,-38.75977 -6.12967,-6.42737 -13.12003,-11.31569 -20.78515,-14.5332 -5.87318,-2.46533 -17.45093,-4.48316 -23.05665,-4.01953 -3.42605,0.28335 -2.98895,0.51017 4.17188,2.17773 9.87036,2.29853 18.60427,5.72699 24.43164,9.58789 12.10123,8.01769 22.09328,21.8206 22.04688,30.45704 -0.0926,17.23577 -20.88331,26.80269 -44.9961,20.70507 -10.6025,-2.68114 -23.49069,-7.86694 -30.80859,-15.13086 -9.17024,-10.07422 -12.57799,-14.65005 -20.32205,-25.86892 -4.30813,-7.44035 -16.91428,-27.39077 -16.91428,-27.97483 0,-0.31006 5.475,0.0558 13.3125,0.0508 11.98799,-0.008 15.79432,-0.40924 23.97461,-2.53516 20.80582,-5.40707 36.00502,-17.05169 43.49414,-33.32031 3.18792,-6.92511 4.24074,-20.39622 2.31836,-29.65625 -2.58892,-12.47078 -12.13975,-26.342485 -24.30078,-35.294924 -6.33431,-4.663058 -13.96274,-7.872924 -23.23633,-9.777344 -5.46552,-1.122397 -5.97925,-1.449351 -5.77344,-3.669922 0.12427,-1.340748 0.52469,-7.433235 0.89063,-13.539063 0.63205,-10.545866 0.53662,-11.384214 -1.91992,-16.75 -2.78221,-6.077163 -4.2718,-7.596857 -2.51954,-2.570312 1.2906,3.702201 0.58014,22.118283 -1.14453,29.671875 -0.95142,4.167003 -1.60845,5.25 -3.18359,5.25 -1.42876,0 -1.83356,-0.490057 -1.44531,-1.75 3.6125,-11.723019 4.82944,-27.210408 2.73632,-34.814453 -1.3358,-4.852871 -4.59093,-8.17639 -8.8457,-9.027344 -0.65161,-0.130322 -1.18856,-0.207589 -1.65039,-0.216797 z m 2.9668,48.810547 c 0.49886,0.03023 0.84245,0.117843 0.99414,0.269531 0.85529,0.855298 -4.12544,15.165994 -11.85156,34.054686 -8.11749,19.84549 -19.35832,42.59035 -20.10157,40.67383 -2.18095,-5.62376 -12.47509,-34.24015 -15.22851,-42.33203 l -3.34571,-9.83008 2.71094,-2.480468 c 5.45751,-4.993 16.96895,-11.978342 24.91211,-15.117188 7.24916,-2.864602 18.41816,-5.449916 21.91016,-5.238281 z m 5.23242,1.34375 c 0.27441,0.07956 0.5065,0.403557 0.71289,0.941406 1.31695,3.43192 -10.94054,34.914041 -25.12891,64.541011 -7.28613,15.21433 -9.64769,18.36648 -11.04296,14.73047 -0.30436,-0.79317 2.23817,-7.20567 5.65039,-14.25 11.02385,-22.75807 17.55378,-37.52854 22.46679,-50.80859 4.16533,-11.259008 6.15271,-15.499074 7.3418,-15.154297 z m 7.46094,1.210938 c 2.41093,-0.432938 13.08302,5.996468 18.42968,11.273437 C 248.97321,101.94849 255,115.43989 255,127 c 0,16.78176 -11.35556,32.07392 -28.22266,38.00586 -9.86133,3.46809 -34.60536,3.51214 -38.09179,0.0684 -0.4483,-0.44281 3.3113,-10.39434 8.35547,-22.11524 C 207.21582,119.31625 213.326,103.7871 217.48437,91 c 1.5203,-4.675 3.07404,-8.84379 3.45313,-9.263672 0.0833,-0.09225 0.20646,-0.150825 0.36719,-0.179687 z m 46.15234,26.177739 c 0.12884,0.0874 0.41719,0.51381 0.84766,1.26562 4.34452,7.58763 4.67658,22.97028 0.7207,33.32422 -4.98749,13.05404 -17.52336,25.02289 -32.0957,30.64258 -9.90767,3.8208 -12.6524,3.92674 -3.79297,0.14648 22.5861,-9.63734 35.16424,-24.72915 37.4043,-44.88086 0.57885,-5.2073 -0.56408,-12.79015 -2.97461,-19.73242 -0.20884,-0.60145 -0.23822,-0.85305 -0.10938,-0.76562 z m -98.14453,58.37499 2.7793,1.4375 c 3.9977,2.0673 4.22141,2.91739 1.94531,7.37891 -2.51326,4.92641 -16.90214,29.3943 -21.65625,36.82617 -1.92311,3.00632 -3.30274,5.66016 -3.06641,5.89649 0.46945,0.46946 6.05938,-8.31148 15.69141,-24.64844 3.40486,-5.775 6.66845,-10.79659 7.25195,-11.1582 1.31866,-0.81721 3.74219,0.0419 3.74219,1.32617 0,0.89154 -10.70968,20.44298 -17.98438,32.83203 -5.3282,9.07411 -12.05211,18.12351 -18.46289,24.84961 -8.60689,9.03021 -16.08079,12.41541 -8.68945,3.93555 5.13569,-5.89202 17.79918,-25.23481 17.86328,-27.28516 0.0344,-1.1 4.68039,-13.11301 10.32422,-26.69531 z M 183.42578,182 c 1.91468,0 3.1056,1.21305 5.64258,5.75 4.25261,7.60501 13.7855,23.93787 18.2151,30.34294 10.88205,17.56666 20.6808,24.27163 14.50666,20.6872 -12.50619,-7.26053 -16.37825,-13.26871 -26.61825,-29.99889 C 190.63298,201.36559 181,183.59179 181,182.63281 181,182.285 182.09114,182 183.42578,182 Z"
       style="baseline-shift:baseline;display:inline;overflow:visible;vector-effect:none;enable-background:accumulate;stop-color:#000000;stop-opacity:1;stroke:#f3c70e;stroke-opacity:1;fill:#f3c70e;fill-opacity:1"
       id="path2"
       sodipodi:nodetypes="ssssccssscssssssscccsssssssscssssssscccccccsssscccsssssssssssssscssssssssssscsssssssscccssssssssssssssssssssssssssccssssssssssccsscssss" />
  </g>
</svg>
